<?xml version="1.0" encoding="utf-8"?>
<!-- Generator: Adobe Illustrator 24.3.0, SVG Export Plug-In . SVG Version: 6.00 Build 0)  -->
<svg version="1.1" id="Layer_1" xmlns="http://www.w3.org/2000/svg" xmlns:xlink="http://www.w3.org/1999/xlink" x="0px" y="0px"
	 width="400px" height="300px" viewBox="0 0 400 300" style="enable-background:new 0 0 400 300;" xml:space="preserve">
<g>
	<path d="M385.2,140.1c-28.3-16.3-93.4-32.8-121-35.1l-20.8-1.7c-22.2-1.7-34.4-2.8-43.7-2.8c-9.4,0-64.4,4.5-64.4,4.5
		c-27.2,2.3-92.5,18.7-120.6,35.1C1.4,147.7,0,153.1,0,171.2V217c0,3.6,0.5,9.2,4.3,13.2c4.5,4.7,10.2,4.7,17,4.7h357.3
		c6.8,0,12.5,0,17-4.7c3.8-4.2,4.3-9.5,4.3-13.2v-46C400,153.1,398.6,147.7,385.2,140.1z M395.7,216.8c0,3-0.3,7.1-3.1,9.9
		c-3.1,3.3-7.6,3.3-13.9,3.3H21.3c-6.2,0-10.8,0-13.9-3.3c-2.8-3-3.1-7.1-3.1-9.9V171c0-17.4,1.6-20.7,12.3-26.9
		c27.8-16,92-32.3,119.2-34.5l20.8-1.7c22-2.6,34.4-3.3,43.6-3.3c9.2,0,23.1,0.5,43.2,3.3l20.8,1.7c27.2,2.1,91.5,18.4,119.2,34.5
		c10.9,6.2,12.3,9.5,12.3,26.9L395.7,216.8z"/>
	<path d="M32.3,193.4l-1,0.2c0,6.8,0.2,13.5,0.2,20.1H17.5v-53.4l14.6-5.2c11.6-4,18.9,0,19.1,14.9
		C51.4,184.9,44.1,192.2,32.3,193.4z M33,167.9l-1.7,0.5c0,4.7,0,9.4,0.2,13.9l1.9-0.3c3.5-0.7,4.9-4.5,4.9-8.7
		C38,169.1,36.4,166.8,33,167.9z M105.2,186.4l-1.2,0.2v26.9H89.5l-0.2-74.8c0,0,10.1-2.1,15.1-3c12-2.3,21.2,4.2,21.3,22.7
		C126.2,176.9,117.1,185.2,105.2,186.4z M105.7,151.9c-0.7,0.2-1.7,0.3-1.7,0.3v18.6c6.4-0.5,7.8-3.5,7.8-10.9
		C111.9,154,109.2,151.6,105.7,151.9z M350.2,161.8l-5.7-1c0.5-4.7,1-9.4,1.6-13.9c2.4,0.7,5,1.6,7.5,2.3
		C352.5,153.3,351.2,157.5,350.2,161.8z M342.2,206.7v-60.9l-0.3-0.2c-4.2-1-6.9-1.7-11.3-3h-0.2v35.7c-3.6-13.4-7.5-24.3-11.6-38.2
		c-0.2,0-0.5,0-0.7-0.2l-12.7-2.8v44.3c-0.2,10.2-0.3,20.7-0.5,31.8h13.7v-37.5c3.5,12.8,8,25.5,11.3,37.5h12.3V206.7z M300.6,136.6
		h-0.3c-4.9-0.9-14.1-2.3-14.1-2.3v29.5h-10.6v-28.1V133l-1.7-0.2l-11.5-1.6l-1.7-0.2v0.9c-0.2,14.4,0,27.6,0,40.6v40.8h14.9V183
		h10.6v30.4h14.4V136.6z M369.3,175.5c-2.3-2.4-3.6-4.5-3.6-6.1c0-1.9,0.7-3.5,2.8-3.5c2.4,0.2,3,3.3,3,5.4c0,0.5,0,0.9,0.2,1.4
		h12.7c-0.3-11.1-4.5-17.9-14.2-19.8c-9.2-1.9-18,2.3-18.2,13.9c-0.2,7.1,3.1,13.4,8.3,18.6c2.4,2.4,4.7,4.7,7.1,6.9
		c2.3,2.1,3.5,3.6,3.5,5.2c0,1.9-1,3.5-3.1,3.5c-2.6,0-3.6-2.6-3.8-4.7v-2.8h-12.7v1.9c-0.2,11.8,6.4,19.1,16,19.1
		c11.3,0,17.5-7.1,17.4-16.7c0-5.6-3.3-9.9-8.2-14.9C374,180.4,371.7,177.9,369.3,175.5L369.3,175.5z M74.3,142
		c-5,1.2-9.9,2.4-14.9,3.8c-3.6,23.6-7.3,46.2-10.9,67.7h14.1c0.3-2.8,0.9-8.2,0.9-8.2h8.3c0,0,0.7,5.4,1,8.2h14.1
		C82.6,188.9,78.4,164.9,74.3,142z M64.4,192.7c0,0,1.6-16.7,2.4-24.8H67c1,8,3.1,24.8,3.1,24.8H64.4z M153.6,129.9
		c-5.2,0.5-14.1,1.4-19.4,2.1c-4,27.9-7.8,54.5-11.6,81.4h15.6l0.9-9.9h10.4l1,9.9h16C162.1,185.1,157.9,157.6,153.6,129.9z
		 M140.6,188.5l3.5-30h0.3l4,30H140.6z M235.7,128.3c-11.3-0.3-20.1,8.7-20.3,24.5c0,12.1,0,24.3-0.2,36.4
		c0,15.6,9.4,25.2,20.5,25.2s19.6-10.1,19.8-25.2c0.2-11.8,0.2-23.1,0.3-34.9C256,138.9,248.7,128.8,235.7,128.3L235.7,128.3z
		 M239.5,193.9c0,1.9-1.6,3.5-3.5,3.5h-0.7c-1.9,0-3.5-1.6-3.5-3.5v-45.1c0-1.9,1.6-3.5,3.5-3.5h0.7c1.9,0,3.5,1.6,3.5,3.5V193.9z
		 M195.9,128.1v67.3c0,1.2-0.9,2.3-2.1,2.4h-0.5c-1.4,0-2.4-1-2.4-2.4V187c-4.3,0-9.5,0-13.9,0.2v8.9c0,10.8,6.6,18.2,16.5,18.2
		c0.9,0,1.7,0,2.4-0.2c10.8-0.9,15.3-8,15.3-24.1l0.2-61.8C211.4,128.1,195.9,128.1,195.9,128.1z"/>
	<g>
		<path d="M171.1,82.3c-0.2-1.6-1.4-2.3-3-2.1l-1.6,0.2l0.7,5.2h1.4c1.4-0.2,2.6-1.4,2.4-3V82.3z"/>
		<polygon points="230.5,91.7 233.6,92 233.2,83.7 		"/>
		<path d="M286.5,89.3l-2.6-0.9c-0.7-0.2-17.4-4.7-22.9-4.9l1.2-6.6c0-0.5-0.2-1-0.5-1.4c-2.3-3.3-26.7-10.4-62-10.4
			c-34.9,0-60.2,6.6-62.6,9.4c-0.3,0.3-0.5,0.9-0.3,1.4l1.7,7.6c-5.6,0.2-22.2,4.7-22.9,4.9l-2.8,0.9l1.6,1.7l9.9,10.4l-2.1,17.7
			l-0.3,2.4l2.3-0.5c2.1-0.5,4.3-1.2,6.8-1.9c5.6-1.7,12-3.6,16.5-3.6c0,0,3.3,0,6.6-0.3c1.2-0.2,1.7-0.5,1.9-1
			c0.3-1.6-3.5-4.2-4.5-4.7c1.7-1.6,28.3-4.3,48.2-4.3h0.9c19.8,0,45.8,2.8,47.4,4.3c-1,0.7-4.9,3.3-4.5,4.9c0.2,0.5,0.7,0.9,1.9,1
			c3.3,0.3,6.6,0.3,6.6,0.3c4.5,0,10.9,1.9,16.5,3.6c2.4,0.7,4.7,1.4,6.8,1.9l2.3,0.5l-2.4-20.1l9.9-10.4L286.5,89.3z M169.2,89.4
			l-1.7,0.2l1,8.5l-4.5,0.5l-2.6-21.2l6.2-0.7c4.2-0.5,7.5,1.2,8,5.4C176.1,86.3,173.4,88.9,169.2,89.4z M180,96.6l-1.2-21.2
			l4.7-0.3l1.2,21.3L180,96.6z M202.7,96h-13.4v-3.1l7.6-14.4l-7.6,0.2v-3.8l13-0.2v3l-7.8,14.8l8.2-0.2V96z M220.9,78.2l-8.7,14.2
			l8.2,0.3l-0.2,3.8l-13.4-0.7l0.2-3.1l8.5-14.1l-7.6-0.3l0.2-3.8l13,0.7L220.9,78.2z M233.9,98.1l-0.2-2.6l-4.3-0.5l-0.9,2.6
			l-4.7-0.5l7.8-20.5l4.7,0.5l2.3,21.9L233.9,98.1z"/>
	</g>
	<path d="M294.8,105.4c-3.5,0-6.4-2.8-6.4-6.4c0-3.5,2.8-6.4,6.4-6.4s6.4,2.8,6.4,6.4c0,3.5-2.8,6.4-6.2,6.4H294.8L294.8,105.4z
		 M294.8,93.6c-3,0-5.6,2.4-5.6,5.4s2.4,5.6,5.4,5.6c3,0,5.6-2.4,5.6-5.4V99c0.2-3-2.3-5.4-5-5.6C295,93.6,294.8,93.6,294.8,93.6
		L294.8,93.6z M296.9,101.9c-0.9,0-1.2-0.2-1.2-0.9v-0.7c0-0.5-0.2-0.9-0.7-0.9h-1v2.4h-1V96h2.3c1.2,0,1.7,0.7,1.7,1.6v0.2
		c0,0.7-0.2,1-0.9,1.2c0.5,0,1,0.5,1,1.2v0.7c0,0.2,0.2,0.2,0.3,0.2v0.7C297.4,101.8,296.9,101.9,296.9,101.9z M295.7,97.6
		c0-0.3-0.2-0.7-0.5-0.7H294v1.7h1c0.3,0,0.7-0.2,0.9-0.5v-0.5H295.7z"/>
</g>
</svg>
