<?xml version="1.0" encoding="utf-8"?>
<!-- Generator: Adobe Illustrator 24.3.0, SVG Export Plug-In . SVG Version: 6.00 Build 0)  -->
<svg version="1.1" id="Layer_1" xmlns="http://www.w3.org/2000/svg" xmlns:xlink="http://www.w3.org/1999/xlink" x="0px" y="0px"
	 width="400px" height="300px" viewBox="0 0 400 300" style="enable-background:new 0 0 400 300;" xml:space="preserve">
<g>
	<path d="M67.2,182.3c-3.1-0.3-5.5-0.9-7.8-2.8c-2.1-1.7-3.7-4.5-5.1-8.1c-2.8-7.7-5.6-17.3-7-22.2c18.2-6.4,26.7-14.6,26.7-23.8
		c0-8.4-6.9-14-22.2-12.1c-6.8,0.9-11.7,1.8-17,2.8c-19.6,3.8-26.9,12.3-26.9,21c0,5.9,5.2,10,11.2,10c4.1,0,4.5-2.3,3.3-3.2
		c-2.5-1.9-4.1-3.8-4.1-7.1c0-5.1,3.9-11.7,18-14.8c0.9-0.2,1.7-0.4,2.4-0.5c-2.3,6.6-6.5,18.3-10.3,28.4C6.8,158.6,0,170.4,0,178.7
		c0,6.2,4.8,9.7,10.6,9.7c8.7,0,15.6-5.8,21-19c2-4.8,4.2-10.4,6.4-16.2c1.4,5.1,3.9,14.1,6.7,21.3c1.6,4.2,3,7.1,5.1,9.3
		c2.6,2.6,6.1,3.9,10.2,3.9c4.9,0,7.8-1.7,8.6-2.9C69.5,183.4,69,182.4,67.2,182.3z M21.7,166.4c-4.8,9.8-7.7,13.9-11.4,14.5
		c-1.7,0.3-3-0.5-3-3c0-2.7,2.9-12.8,18.4-20.9C24.1,161.1,22.7,164.4,21.7,166.4z M41,145.2c3.8-10.2,7.2-20.1,9.1-25.8
		c8.2-0.9,12.3,1.6,12.3,7.7c0,6-5.1,11.9-15.8,16C44.6,143.9,42.7,144.6,41,145.2z"/>
	<path d="M271.4,166.6c-1.7,0-4.1,2.7-8.4,2.7c-2.9,0-4.5-1.9-4.5-5.8c0-1,0.1-2,0.4-3.1c0.3,0,0.7,0,1.1,0c14,0,22.4-8.1,22.4-16
		c0-5.7-4.4-8.6-8.6-8.6c-10.5,0-23.1,12.4-25.2,25.1c-3,5.1-5.4,7-7,7c-1.7-0.1-1.6-2.5,0-7c2.4-6.9,5.9-16.3,8.9-23.4
		c6-14.3,9.8-22.2,10.3-23.8c0.5-1.7-0.4-1.9-2.1-1.7c-6.1,0.9-9.5,0.6-12.1,4.9c-4.1,6.8-21.6,34.1-21.6,34.1s5.2-33.7,6-37.2
		c0.4-1.9-0.6-2.4-2.2-2c-2,0.6-3.7,0.9-6.3,1.8c-2.3,0.8-2.8,1.5-4.4,5.2c-0.8,1.9-7.5,21.8-12.3,31.8c-5,10.6-9,16.9-18.4,17.7
		c-2.5,0.2-2.7,1.5-2,3.1c1.5,3.4,5.1,5.4,8.5,5.4c5.9,0,10.1-4.2,14.1-13.8c3.3-8,8.2-21.8,11.9-32.2c-3,16.1-6.7,37.7-7.2,43.3
		c-0.3,3.3,4.2,3.4,6,0.2c4.7-8.5,14.9-25.9,24-41.7c-3.7,8.9-8.1,19.5-10.1,25.5c-1.4,4.4-2.6,7.6-2.6,11.6c0,4.6,3.2,7.4,6.7,7.4
		c3.6,0,7.7-1.8,12.2-7.4c1.3,4.7,4.8,7.5,10.7,7.5c7.7,0,13.4-5.2,13.4-8.6C272.9,167.3,272.3,166.6,271.4,166.6z M271.3,142.7
		c4.3,0,1,11.4-10.4,11.8C263.7,148.4,268.4,142.7,271.3,142.7z M248.5,122.5c0,0.1-0.1,0.2-0.1,0.2
		C248.4,122.7,248.5,122.6,248.5,122.5z M222.8,116.3c0,0,0-0.1,0-0.2C222.9,116.1,222.8,116.2,222.8,116.3z"/>
	<path d="M336.2,123.9c4.1-2.9,7.2-3.1,8.2-3.9c1.5-1.2-0.5-7.3-6.2-7.3c-9.1,0-13.8,11.4-17.4,21.4c-2.4,6.5-5,14.5-7,20.8
		c1-14,2.7-36.6,2.8-39.1c0.1-1.3,0-2-0.6-2.3c0-0.1,0.1-0.1,0.1-0.1c-0.1,0-0.3,0-0.5,0c-0.2-0.1-0.5-0.1-0.8-0.1
		c-1.2,0-2.4,0-3.5,0.1c-5.3,0-12.7,0-15.8,0c-23.1,0-21.4,21.6-7.1,21.6c2.7,0,2.7-2.6,1.4-3.2c-5.2-2.6-6.3-12.1,11-12.1
		c2.2,0,3.6,0,4.7,0c-2.2,7.4-6.2,19.9-11.4,30.9c-5.5,11.7-8.6,16.1-17.1,18.3c-2.5,0.6-2.3,2-1.6,3.6c0.8,1.9,3.9,4,7.7,4
		c6.8,0,10.4-5,14.1-14.9c3.6-9.7,6.6-19.1,8.8-26.4c-0.6,15.7-1.2,35.7-1.3,39.3c-0.1,2.8,1,2.8,3.2,1.8c4.4-1.9,5.9-2.5,7-6.1
		c3.7-11.2,7.2-20.6,11.4-31.1C328.9,132.6,332.8,126.4,336.2,123.9z"/>
	<path d="M348.9,136.6c-18.2,0-27.2,21.1-27.2,30.2c0,6.5,4.1,10.5,11,10.5c15.2,0,24-20.8,24-30.4
		C356.7,140.4,353.7,136.6,348.9,136.6z M335.7,168.9c-6.8,0,2.2-25.4,8.3-25.4C349.7,143.4,342.9,168.9,335.7,168.9z"/>
	<path d="M396.9,125.6c-1.5,0-6.9,0.1-15,0.4c1.3-3.2,2.4-5.8,3.1-7.5c0.5-1.3,0.3-2.1-1.1-2.1c-1.2,0-3.4,0.4-6,1.1
		c-3.4,0.9-3.9,1.5-5.8,5.5c-0.4,0.9-0.9,2-1.4,3.3c-7.9,0.3-17.1,0.7-27.3,1.1c-4,0.2-9.5,5.1-4.7,5.1c9.5,0,19.9,0.4,29.3,0.6
		c-1.5,3.9-3.3,8.6-5.4,14.3c-2.7,7-6.7,15.5-6.7,21.3c0,4.3,2.9,8,8.1,8c6.5,0,9.2-3.8,8.5-6c-0.4-1.3-1.6-1.2-4.1-1.2
		c-1.7,0-2.3-1.2-2.3-2.5c0-2,0.9-4.1,2-6.9c3.7-9.6,7.5-19,10.6-26.7c2.6,0.1,5.1,0.1,7.4,0.1c5.6,0,7.8-0.2,9.8-1.7
		c1.6-1.3,2.4-2,3.3-3.1C400.3,127.7,400.7,125.6,396.9,125.6z"/>
	<ellipse transform="matrix(0.5489 -0.8359 0.8359 0.5489 -31.9252 198.1552)" cx="167.6" cy="128.7" rx="6.6" ry="5.1"/>
	<path d="M179.1,169.9c-1.5-0.2-1.8-1.2-1.8-2.8c0-2,0.6-4.8,1.5-8c23.8-11.1,39.3-45.2,21.6-45.2c-11.8,0-26.5,26.1-31.1,43.8
		c-2.6,4.2-7.1,10.6-10.2,10.6c-2.4,0-1.8-3.2,0-7.9c4.1-11.1,10-22.5,10-22.5s-3-1.3-7-0.6c-2.7,0.5-3.8,1.8-5.1,4.2
		c-0.2,0.2-0.3,0.5-0.5,0.9c-7.7,16.5-12.5,25.9-16.9,25.9c-3.1,0-1.3-3.4,0.4-8.1c4.1-11.1,10-22.5,10-22.5s-3-1.3-7-0.6
		c-2.5,0.4-3.7,1.7-4.9,3.9c-0.8-2.3-2.5-4.5-6.3-4.5c-11.4,0-20,14.7-22.4,25c-2.3,3.6-5.4,7.5-7.7,7.5c-2.3,0-2.3-2-0.5-6.7
		c2.9-7.5,8.5-20.6,13-30.8c11.2,0.2,21.8,0.5,27.9,0.5c5.6,0,7.8-0.2,9.8-1.7c1.6-1.3,2.4-2,3.3-3.1c1-1.2,1.4-3.3-2.4-3.3
		c-2.1,0-17.5,0.5-35.7,1.2c1.4-3.1,2.5-5.6,3.1-7c0.4-0.9-0.2-1.8-1.6-1.7c-2.1,0.2-2.9,0.5-5.2,1c-3.5,0.9-4.3,1.9-6.2,5.9
		c-0.3,0.6-0.6,1.3-1.1,2.3c-7.3,0.3-14.7,0.6-21.6,0.9c-4,0.2-8.5,4.6-3.7,4.6c6,0,14.2,0.1,22.8,0.3c-1.5,3.4-3.2,7.3-4.6,10.8
		c-0.2,0.3-0.3,0.6-0.5,1c-5.8,13.2-14.7,27.1-24.4,27.1c-3.8,0-5.4-2.5-5.4-5.7c0-1.2,0.2-2.6,0.5-4c0.4,0,0.8,0,1.3,0
		c14,0,22.2-8.6,22.2-16.5c0-5.1-4.2-8.1-8.5-8.1c-11.5,0-25.5,14.9-25.5,28.8c0,7.4,4,12.4,10.8,12.4c9.2,0,16.2-5.6,21.3-11.8
		c-0.3,1.4-0.4,2.8-0.4,4.1c0,4.3,2.5,7.5,6.5,7.5c4.6,0,8.5-2.8,12.2-7.6c0.7,4.8,3.5,7.6,7.6,7.6c4.8,0,9-3.7,12.3-8.1
		c0.2,4,1.6,8.1,6.9,8.1c3.8,0,7.6-2,12.2-8.4c0.1,4.2,1.9,8.6,6.9,8.6c4.8,0,9.1-3.4,13-8.7c0.4,5.3,3.2,8.4,7.3,8.4
		c4.2,0,7.7-2.7,7.5-5.7C182.4,169.1,180.4,170.1,179.1,169.9z M199.4,121.3c2.6,0-4.4,18.4-17.3,28.5
		C187.7,136.3,196.4,121.3,199.4,121.3z M81,142.4c4.4,0,1.7,12.3-10,12.3c0,0-0.1,0-0.1,0C73.6,148.3,78.1,142.4,81,142.4z
		 M120.5,168.7c-6.6,0,4.6-25.1,10.9-25.1c2.4,0,3.3,1.6,3.6,2.9C129.8,158.6,125.6,168.7,120.5,168.7z"/>
</g>
</svg>
