<?xml version="1.0" encoding="utf-8"?>
<!-- Generator: Adobe Illustrator 24.3.0, SVG Export Plug-In . SVG Version: 6.00 Build 0)  -->
<svg version="1.1" id="Layer_1" xmlns="http://www.w3.org/2000/svg" xmlns:xlink="http://www.w3.org/1999/xlink" x="0px" y="0px"
	 width="400px" height="300px" viewBox="0 0 400 300" style="enable-background:new 0 0 400 300;" xml:space="preserve">
<g>
	<path d="M35.1,177.8c-0.3-2.1-0.5-4.1-0.5-6.2c-2.6,4-7.5,7.6-15.2,7.6c-11,0-17.6-7.5-17.6-15.4c0-9.1,6.7-14.2,15.3-15.4
		l12.6-1.9c2.9-0.4,3.9-1.9,3.9-3.7c0-3.7-2.8-6.7-8.6-6.7c-6.1,0-9.4,3.8-9.8,8.4l-12.2-2.6c0.9-8,8.2-16.9,22-16.9
		c16.3,0,22.3,9.2,22.3,19.5v25.2c0,2.7,0.2,5.4,0.7,8.1H35.1V177.8z M33.6,154.8l-11.7,1.8c-3.5,0.5-6.3,2.5-6.3,6.5
		c0,3,2.1,5.9,6.7,5.9c5.8,0,11.3-2.8,11.3-11.9V154.8z M82.5,166.3c1.5,0,2.9-0.2,4.3-0.4v11.5c-2.5,0.9-5.2,1.3-7.9,1.2
		c-9.9,0.1-16.3-5.8-16.3-15.8v-24.1h-9.3v-12.2H56c5.4,0,8-3.5,8-8.1v-7.2h12.6v15.3h10.3v12.2H76.5v21.5
		C76.4,164.7,78.5,166.3,82.5,166.3L82.5,166.3z M113.7,135.5c-3.7,0-6.6,2.1-6.6,5.1c0,2.5,1.9,4,4.7,4.5l7.3,1.5
		c10.1,2.1,15.2,8.2,15.2,15.7c0,8.4-6.5,16.9-19.9,16.9c-15.4,0-20.8-10-21.4-15.9l11.9-2.6c0.2,4,3.3,7.9,9.4,7.9
		c4.5,0,6.8-2.4,6.8-5.1c0-2.3-1.5-4.2-5.6-5.1l-6.8-1.5c-9.9-2.1-14.5-8.1-14.5-15.3c0-9.2,8.1-16.8,19.2-16.8
		c14.5,0,19.5,9.2,20.1,14.8l-11.7,2.6C121.6,139.3,119.5,135.5,113.7,135.5L113.7,135.5z M171.9,179.1c-7.1,0-12.2-2.8-14.8-6.2
		v24.7h-13.9v-71.1h13.4v6.2c2.3-3.9,8-7.5,15.7-7.5c15,0,23.7,11.5,23.7,26.7C196.1,167.7,186.3,179.1,171.9,179.1z M169.6,137.8
		c-7.1,0-12.8,5.3-12.8,14.5s5.7,14.5,12.8,14.5c7.1,0,12.8-5.3,12.8-14.5S176.7,137.8,169.6,137.8z M229,179.4
		c-15.3,0-26.9-11.5-26.9-27.2S213.7,125,229,125s26.9,11.4,26.9,27.2S244.3,179.4,229,179.4z M229,137.5c-6.8,0-13.1,4.9-13.1,14.5
		c0,9.6,6.2,14.5,13.1,14.5c6.8,0,13.1-4.9,13.1-14.5C242,142.4,235.8,137.5,229,137.5z M312.2,177.8h-16.9l-13.6-19.6l-5.7,6.1
		v13.6h-13.9v-75.4h13.9v43.3l17.7-19.1h18.1l-20.5,21.6L312.2,177.8L312.2,177.8z M362.2,155.7h-36.7c0.2,6.8,6.1,11.7,12.9,11.7
		c6.5,0,10-3.3,11.7-7.9l11.7,3.4c-2.6,8.9-10.8,16.3-23.4,16.3c-14,0-26.4-10.1-26.4-27.4c0-16.3,12.2-27.1,25.2-27.1
		c15.9,0,25.3,10.1,25.3,26.6C362.4,152.8,362.3,154.3,362.2,155.7L362.2,155.7z M337.2,136.1c-2.9-0.1-5.6,0.9-7.7,2.8
		c-2.1,1.9-3.4,4.5-3.8,7.3h23C348.5,141.2,345.2,136.1,337.2,136.1L337.2,136.1z"/>
	<path d="M384.3,179.2c7.7,0,13.9-6.2,13.9-13.9c0-7.7-6.2-13.9-13.9-13.9c-7.7,0-13.9,6.2-13.9,13.9
		C370.4,172.9,376.7,179.2,384.3,179.2z"/>
</g>
</svg>
