<?xml version="1.0" encoding="utf-8"?>
<!-- Generator: Adobe Illustrator 24.3.0, SVG Export Plug-In . SVG Version: 6.00 Build 0)  -->
<svg version="1.1" id="Layer_1" xmlns="http://www.w3.org/2000/svg" xmlns:xlink="http://www.w3.org/1999/xlink" x="0px" y="0px"
	 width="400px" height="300px" viewBox="0 0 400 300" style="enable-background:new 0 0 400 300;" xml:space="preserve">
<g>
	<path d="M189.1,160.6l-5.2,14.3c0,0.6-0.6,0.6-0.6,0.6h-8c-0.6,0-0.6,0-0.6-0.6c4.6-12,11.5-32.7,16.6-46.4c0-0.6,0.6-1.7,0.6-4.6
		c0-0.6,0-0.6,0.6-0.6h10.9c0.6-0.6,0.6,0,0.6,0c5.7,16.6,12.6,34.4,18.3,51c0,0.6,0,0.6-0.6,0.6h-9.2c-0.6,0-0.6,0-0.6-0.6
		l-5.2-14.3h-17.8V160.6z M205.2,152.6c-1.7-5.2-5.7-16-6.9-21.8l0,0c-1.1,5.2-4.6,14.3-6.9,21.8H205.2z M227.5,156
		c0-11.5,8.6-20.6,22.3-20.6c1.7,0,3.4,0,4.6,0.6v-17.2c0-0.6,0-0.6,0.6-0.6h8.6c0.6,0,0.6,0,0.6,0.6v47c0,1.7,0,4,0,5.2
		c0,0.6,0,0.6-0.6,0.6c-5.2,2.3-10.9,4-16,4C235.5,176.1,227.5,169.8,227.5,156z M253.9,144c-1.1-0.6-2.9-0.6-4.6-0.6
		c-7.4,0-12,4.6-12,12.6c0,9.2,5.2,12.6,11.5,12.6c1.7,0,4-0.6,5.7-0.6V144H253.9z M312.3,155.4c0,12.6-8,20.6-19.5,20.6
		c-13.8,0-19.5-10.3-19.5-20.1c0-12,8-20.1,20.1-20.1C305.4,135.4,312.3,144.6,312.3,155.4z M283.1,155.4c0,8,3.4,13.2,9.7,13.2
		c5.2,0,9.2-3.4,9.2-13.2c0-7.4-2.9-13.2-9.7-13.2C287.1,142.8,283.1,147.4,283.1,155.4z M329.5,118.8c0.6,0,0.6,0,0.6,0.6v18.3
		c2.9-1.1,5.7-1.7,8.6-1.7c10.9,0,17.8,8,17.8,18.3c0,13.8-10.9,22.3-23.5,22.3c-4,0-8-0.6-12-1.7c-0.6,0-0.6-0.6-0.6-0.6v-55
		c0-0.6,0-0.6,0.6-0.6H329.5z M337,143.4c-2.3,0-4.6,0.6-6.3,1.1v23.5c1.1,0.6,2.9,0.6,4.6,0.6c5.7,0,12.6-4.6,12.6-13.8
		C347.3,147.4,342.7,143.4,337,143.4z M374.8,157.7c0,6.3,4,10.3,12,10.3c2.9,0,6.3-0.6,9.7-1.7c0,0,0.6,0,0.6,0.6v6.3
		c0,0.6,0,0.6-0.6,1.1c-2.9,1.7-6.9,2.3-12,2.3c-14.3,0-20.1-9.7-20.1-20.1c0-11.5,6.9-20.6,18.9-20.6c12,0,16.6,9.2,16.6,16.6
		c0,3.4-0.6,5.2-0.6,5.2c-1.1,0-4,0-8.6,0H374.8z M387.4,151.4c2.9,0,3.4-0.6,3.4-0.6s0-0.6,0-1.1c0-2.3-1.7-7.4-8-7.4
		c-5.2,0-8,4-8.6,9.2H387.4z"/>
	<path d="M68.2,102.1l40.1,95.7v-95.7H68.2z M0,102.1v95.7l40.1-95.7H0z M36.7,178.4H55l8,19.5h16.6l-25.8-60.7L36.7,178.4z"/>
</g>
</svg>
