<?xml version="1.0" encoding="utf-8"?>
<!-- Generator: Adobe Illustrator 24.3.0, SVG Export Plug-In . SVG Version: 6.00 Build 0)  -->
<svg version="1.1" id="Layer_1" xmlns="http://www.w3.org/2000/svg" xmlns:xlink="http://www.w3.org/1999/xlink" x="0px" y="0px"
	 width="400px" height="300px" viewBox="0 0 400 300" style="enable-background:new 0 0 400 300;" xml:space="preserve">
<g>
	<path d="M357.5,147.3c-11.9,7.3-25.5,10.9-39.1,10.9c-4.6,0-8.3-3.6-8.3-8.3s3.6-8.3,8.3-8.3c31.2,0,56.7-24.5,58.4-55.4h16.9
		C392.4,111.5,379.1,134.1,357.5,147.3 M393.4,214h-16.9c-1.3-23.5-16.6-43.4-37.8-51.7c0.3,0,0.3,0,0.7-0.3c0.3,0,1-0.3,1.3-0.3
		c0.3,0,0.7-0.3,1.3-0.3c0.3,0,1-0.3,1.3-0.3c0.3,0,0.7-0.3,1.3-0.3c0.3,0,1-0.3,1.3-0.7c0.3,0,0.7-0.3,1.3-0.3
		c0.3-0.3,1-0.3,1.3-0.7c0.3,0,0.7-0.3,1.3-0.3c0.3-0.3,1-0.3,1.3-0.7s0.7-0.3,1-0.7c0.3-0.3,1-0.3,1.3-0.7s0.7-0.3,1-0.7
		c0.3-0.3,1-0.3,1.3-0.7c0.3-0.3,0.7-0.3,1-0.7s1-0.3,1.3-0.7c0,0,0.3,0,0.3-0.3C379.8,167.2,392.4,189.5,393.4,214 M400,83.3V80
		h-29.5v3.3c0,28.9-23.5,52.1-52.1,52.1c-8.3,0-14.6,6.6-14.6,14.6s6.6,14.6,14.6,14.6c28.9,0,52.1,23.5,52.1,52.1v3.3H400v-3.3
		c0-26.9-12.9-51.4-34.8-67C387.1,134.7,400,110.2,400,83.3"/>
	<path d="M189.1,126.5c-1.7-0.3-3-0.3-4.6-0.3c-5.3,0-10,1.7-13.9,4.3v-4.3h-10.6v46.8h10.6v-22.6c0-8,6.3-14.3,13.9-14.3
		c1.7,0,3.3,0.3,4.6,1V126.5z"/>
	<path d="M216.3,136.1c-7.6,0-13.9,6.3-13.9,14.3c0,8,6.3,14.3,13.9,14.3c7.6,0,13.9-6.3,13.9-14.3
		C230.2,142.4,223.9,136.1,216.3,136.1 M240.5,150c0,13.3-10.9,24.2-24.2,24.2S192,163.3,192,150s10.9-24.2,24.2-24.2
		C229.5,126.1,240.5,136.7,240.5,150"/>
	<path d="M129,136.1c-7.6,0-13.9,6.3-13.9,14.3c0,8,6.3,14.3,13.9,14.3c7.6,0,13.9-6.3,13.9-14.3C143,142.4,136.7,136.1,129,136.1
		 M153.2,150c0,13.3-10.9,24.2-24.2,24.2s-24.2-10.9-24.2-24.2s10.9-24.2,24.2-24.2S153.2,136.7,153.2,150"/>
	<path d="M25.5,142.4c10.9-6.3,18.9-17.2,19.9-30.5H35.2c-1.7,12.9-11.6,23.5-24.5,25.5v-25.9H0v61h10.6V147
		c12.9,2,22.9,12.6,24.5,25.5h10.3C44.4,159.6,36.5,148.3,25.5,142.4"/>
	<path d="M263.7,174.2c5.3,0,10-2,13.3-5c2.7-2.7,4-6.3,4-10.3c0-9.6-7.6-11.6-15.3-13.9c-4-1-8-2.7-8-6.3c0-2.3,2-5,6-5
		c4.6,0,6,3,6,5h10c-1-9.6-9-13.3-15.9-13.3c-8,0-16.3,5-16.3,14.3c0,5.6,3.6,9.3,10.9,11.6l0.7,0.3c8.3,3,11.6,4,11.6,8
		c0,1.3-0.3,2.7-1.3,3.6c-1.3,1.3-3.3,2-5.3,2c-0.7,0-6.3-0.3-7.3-6h-10.3C247.1,166.6,252.1,174.2,263.7,174.2"/>
	<path d="M97.5,147c0-11.6-9.3-20.9-20.9-20.9c-3,0-5.6,0.7-8.3,1.7c-0.7,0.3-1.3,0.7-2,1v-17.2H55.7v61h10.6c0,0,0-18.6,0-26.5
		c0-5.6,4.6-10.3,10.3-10.3c5.6,0,10.3,4.6,10.3,10.3v26.5h10.6V147z"/>
	<path d="M290.2,131.1c0.7-0.3,1-0.7,1-1s-0.3-0.7-0.3-1c-0.3-0.3-0.7-0.3-1.7-0.3c-0.7,0-1.3,0-1.7,0v4.6h1v-2h0.3
		c0.7,0,1,0.3,1,0.7c0,0.7,0.3,1,0.3,1h1c0-0.3-0.3-0.3-0.3-1C290.9,131.8,290.5,131.4,290.2,131.1L290.2,131.1z M288.9,130.8h-0.7
		v-1.3h0.7c0.7,0,1,0.3,1,0.7C289.9,130.8,289.6,130.8,288.9,130.8z"/>
	<path d="M289.2,126.1c-3,0-5,2.3-5,5c0,3,2.3,5,5,5c3,0,5-2.3,5-5C294.2,128.1,291.9,126.1,289.2,126.1z M289.2,135.1
		c-2.3,0-4-1.7-4-4c0-2.3,1.7-4,4-4s4,1.7,4,4C292.9,133.1,291.2,135.1,289.2,135.1z"/>
</g>
</svg>
