<?xml version="1.0" encoding="utf-8"?>
<!-- Generator: Adobe Illustrator 24.3.0, SVG Export Plug-In . SVG Version: 6.00 Build 0)  -->
<svg version="1.1" id="Layer_1" xmlns="http://www.w3.org/2000/svg" xmlns:xlink="http://www.w3.org/1999/xlink" x="0px" y="0px"
	 width="400px" height="300px" viewBox="0 0 400 300" style="enable-background:new 0 0 400 300;" xml:space="preserve">
<g>
	<path d="M140.6,131.4v-9.3h-38.7v9.3c0,0,12.8,0,13.5,0v36.8c-0.7,0-13.5,0-13.5,0v9.3h38.7v-9.3c0,0-14,0-14.7,0v-36.8
		C126.6,131.4,140.6,131.4,140.6,131.4z"/>
	<g>
		<path d="M204.9,131.7h-15.4v15.2c0,0,8.3-0.2,15.2-0.2c6.9,0,8.6-1.5,8.6-8.3C213.2,130.5,204.9,131.7,204.9,131.7z"/>
		<path d="M160.3,109.2v81.6h80.1v-81.6H160.3z M224.3,164.1c0,11.5,0,12.7,0,12.7h-11v-12c0,0,0-9.3-6.4-9.3s-17.4,0.2-17.4,0.2
			v21.3h-10.8v-54.9h31.9c0,0,13.7-0.7,13.7,14.2c0,15-8.3,15.7-8.3,15.7S224.3,152.6,224.3,164.1z"/>
	</g>
	<polygon points="255.1,122.2 255.1,131.3 262.7,131.3 262.7,168.3 255.1,168.3 255.1,177.3 302,177.3 302,159.4 292.6,159.4 
		292.6,168.3 272.8,168.3 272.8,153.3 287.5,153.3 287.5,144.2 272.8,144.2 272.8,131.3 291.9,131.3 291.9,140.1 302,140.1 
		302,122.2 	"/>
	<g>
		<path d="M319.9,109.2v81.6H400v-81.6H319.9z M366.9,177.8c-20.1,0-29.2,0.2-29.2,0.2v-55.6h23.8c0,0,24.5-2.7,24.5,19.4v15.4
			C386,157.2,387,177.8,366.9,177.8z"/>
		<path d="M365.7,131.5H349v36.8c0,0,9.1,0,17.4,0c8.3,0,8.6-10.8,8.6-10.8s0-1.7,0-14.2C375,130.8,365.7,131.5,365.7,131.5z"/>
	</g>
	<path d="M0,109.2v81.6h80.1v-81.6H0z M63.7,177.3H50l-8.8-40l-9.6,40.2H18.1L6.9,122.4h11l7.6,41.9l9.8-41.9l12,0.2l9.8,42.4
		l7.4-42.6H75L63.7,177.3z"/>
</g>
</svg>
